<svg xmlns="http://www.w3.org/2000/svg" width="256" height="256" viewBox="0 0 100 100"><path fill="#000000" d="M18.84 50.85L18.84 56.27Q18.84 56.73 18.57 57.02Q18.31 57.32 17.79 57.60L17.79 57.60Q17.16 57.90 16.06 58.13Q14.96 58.35 13.84 58.35L13.84 58.35Q12.09 58.35 10.64 57.88Q9.19 57.40 8.14 56.42Q7.09 55.45 6.51 53.96Q5.94 52.47 5.94 50.45L5.94 50.45Q5.94 48.45 6.54 46.95Q7.14 45.45 8.17 44.46Q9.21 43.47 10.59 42.99Q11.96 42.50 13.51 42.50L13.51 42.50Q14.56 42.50 15.45 42.67Q16.34 42.85 16.96 43.14Q17.59 43.42 17.94 43.77Q18.29 44.13 18.29 44.47L18.29 44.47Q18.29 44.82 18.09 45.07Q17.89 45.32 17.61 45.45L17.61 45.45Q16.94 45 16.01 44.61Q15.09 44.22 13.64 44.22L13.64 44.22Q12.44 44.22 11.41 44.63Q10.39 45.02 9.64 45.80Q8.89 46.57 8.46 47.75Q8.04 48.92 8.04 50.45L8.04 50.45Q8.04 52.07 8.47 53.24Q8.91 54.40 9.70 55.15Q10.49 55.90 11.55 56.26Q12.61 56.63 13.86 56.63L13.86 56.63Q14.76 56.63 15.56 56.48Q16.36 56.32 16.81 56.10L16.81 56.10L16.81 51.50L13.04 51.50Q12.96 51.38 12.89 51.16Q12.81 50.95 12.81 50.70L12.81 50.70Q12.81 50.27 13.01 50.04Q13.21 49.80 13.59 49.80L13.59 49.80L17.76 49.80Q18.21 49.80 18.52 50.09Q18.84 50.38 18.84 50.85L18.84 50.85ZM24.44 48.63L24.44 57.98Q24.31 58.02 24.06 58.09Q23.81 58.15 23.51 58.15L23.51 58.15Q22.44 58.15 22.44 57.25L22.44 57.25L22.44 48.77Q22.44 48.20 22.65 47.86Q22.86 47.52 23.36 47.20L23.36 47.20Q24.01 46.77 25.12 46.46Q26.24 46.15 27.64 46.15L27.64 46.15Q29.64 46.15 29.64 47.15L29.64 47.15Q29.64 47.40 29.56 47.61Q29.49 47.82 29.36 47.97L29.36 47.97Q29.11 47.92 28.71 47.88Q28.31 47.82 27.91 47.82L27.91 47.82Q26.76 47.82 25.89 48.06Q25.01 48.30 24.44 48.63L24.44 48.63ZM41.76 56.32L41.76 43.50L34.61 43.50L34.61 56.32L41.76 56.32ZM32.59 56.52L32.59 43.30Q32.59 42.60 32.97 42.20Q33.36 41.80 34.06 41.80L34.06 41.80L42.26 41.80Q42.99 41.80 43.37 42.20Q43.76 42.60 43.76 43.30L43.76 43.30L43.76 56.52Q43.76 57.23 43.37 57.63Q42.99 58.02 42.26 58.02L42.26 58.02L34.09 58.02Q33.39 58.02 32.99 57.63Q32.59 57.23 32.59 56.52L32.59 56.52ZM48.11 53.80L48.11 46.52Q48.24 46.47 48.50 46.41Q48.76 46.35 49.06 46.35L49.06 46.35Q50.11 46.35 50.11 47.27L50.11 47.27L50.11 53.70Q50.11 55.32 50.96 56.01Q51.81 56.70 53.31 56.70L53.31 56.70Q54.31 56.70 55.01 56.49Q55.71 56.27 56.11 56.05L56.11 56.05L56.11 46.52Q56.24 46.47 56.50 46.41Q56.76 46.35 57.04 46.35L57.04 46.35Q58.11 46.35 58.11 47.27L58.11 47.27L58.11 55.98Q58.11 56.50 57.97 56.81Q57.84 57.13 57.31 57.42L57.31 57.42Q56.74 57.75 55.72 58.05Q54.71 58.35 53.29 58.35L53.29 58.35Q50.79 58.35 49.45 57.25Q48.11 56.15 48.11 53.80L48.11 53.80ZM74.24 50.85L74.24 56.27Q74.24 56.73 73.97 57.02Q73.71 57.32 73.19 57.60L73.19 57.60Q72.56 57.90 71.46 58.13Q70.36 58.35 69.24 58.35L69.24 58.35Q67.49 58.35 66.04 57.88Q64.59 57.40 63.54 56.42Q62.49 55.45 61.91 53.96Q61.34 52.47 61.34 50.45L61.34 50.45Q61.34 48.45 61.94 46.95Q62.54 45.45 63.57 44.46Q64.61 43.47 65.99 42.99Q67.36 42.50 68.91 42.50L68.91 42.50Q69.96 42.50 70.85 42.67Q71.74 42.85 72.36 43.14Q72.99 43.42 73.34 43.77Q73.69 44.13 73.69 44.47L73.69 44.47Q73.69 44.82 73.49 45.07Q73.29 45.32 73.01 45.45L73.01 45.45Q72.34 45 71.41 44.61Q70.49 44.22 69.04 44.22L69.04 44.22Q67.84 44.22 66.81 44.63Q65.79 45.02 65.04 45.80Q64.29 46.57 63.86 47.75Q63.44 48.92 63.44 50.45L63.44 50.45Q63.44 52.07 63.88 53.24Q64.31 54.40 65.10 55.15Q65.89 55.90 66.95 56.26Q68.01 56.63 69.26 56.63L69.26 56.63Q70.16 56.63 70.96 56.48Q71.76 56.32 72.21 56.10L72.21 56.10L72.21 51.50L68.44 51.50Q68.36 51.38 68.29 51.16Q68.21 50.95 68.21 50.70L68.21 50.70Q68.21 50.27 68.41 50.04Q68.61 49.80 68.99 49.80L68.99 49.80L73.16 49.80Q73.61 49.80 73.92 50.09Q74.24 50.38 74.24 50.85L74.24 50.85ZM80.04 57.98L80.04 57.98Q79.91 58.02 79.66 58.09Q79.41 58.15 79.11 58.15L79.11 58.15Q78.04 58.15 78.04 57.25L78.04 57.25L78.04 41.83Q78.16 41.77 78.43 41.71Q78.69 41.65 78.96 41.65L78.96 41.65Q80.04 41.65 80.04 42.55L80.04 42.55L80.04 57.98ZM93.11 52.35L85.41 53.42Q86.09 56.70 89.71 56.70L89.71 56.70Q90.76 56.70 91.61 56.35Q92.46 56 92.96 55.60L92.96 55.60Q93.56 55.95 93.56 56.55L93.56 56.55Q93.56 56.90 93.25 57.23Q92.94 57.55 92.40 57.80Q91.86 58.05 91.15 58.20Q90.44 58.35 89.61 58.35L89.61 58.35Q86.71 58.35 85.03 56.77Q83.34 55.20 83.34 52.17L83.34 52.17Q83.34 50.75 83.75 49.64Q84.16 48.52 84.90 47.75Q85.64 46.97 86.66 46.56Q87.69 46.15 88.89 46.15L88.89 46.15Q90.01 46.15 90.96 46.52Q91.91 46.90 92.60 47.59Q93.29 48.27 93.68 49.21Q94.06 50.15 94.06 51.27L94.06 51.27Q94.06 51.82 93.81 52.06Q93.56 52.30 93.11 52.35L93.11 52.35ZM88.86 47.77L88.86 47.77Q87.34 47.77 86.34 48.84Q85.34 49.90 85.29 51.88L85.29 51.88L92.16 50.92Q92.04 49.55 91.20 48.66Q90.36 47.77 88.86 47.77Z"></path></svg>